<svg width="48" height="70" viewBox="0 0 48 70" fill="none" xmlns="http://www.w3.org/2000/svg">
<path d="M8.17756 45.0263H5.95935C5.78278 45.0263 5.44067 45.0153 4.93302 44.9932C4.44744 44.9491 3.91772 44.8939 3.34386 44.8277C2.79207 44.7394 2.31753 44.618 1.92024 44.4635C1.52295 44.309 1.3243 44.1214 1.3243 43.9007V35.5907C1.3243 35.3479 1.52295 35.1603 1.92024 35.0279C2.31753 34.8734 2.79207 34.763 3.34386 34.6968C3.91772 34.6306 4.44744 34.5864 4.93302 34.5644C5.44067 34.5202 5.78278 34.4982 5.95935 34.4982H17.2159C17.3925 34.4982 17.7236 34.5202 18.2091 34.5644C18.7168 34.5864 19.2465 34.6306 19.7983 34.6968C20.3722 34.763 20.8577 34.8734 21.255 35.0279C21.6523 35.1603 21.851 35.3479 21.851 35.5907V43.9007C21.851 44.0552 21.7185 44.1987 21.4537 44.3311C21.2109 44.4635 20.935 44.5739 20.626 44.6622C20.339 44.7504 20.1404 44.8167 20.03 44.8608L14.2693 46.781H17.547C17.7236 46.781 18.0546 46.8031 18.5402 46.8473C19.0479 46.8693 19.5776 46.9245 20.1294 47.0128C20.7032 47.079 21.1888 47.1894 21.5861 47.3439C21.9834 47.4763 22.182 47.6639 22.182 47.9067V55.389C22.182 55.6318 21.9834 55.8304 21.5861 55.9849C21.1888 56.1174 20.7032 56.2277 20.1294 56.316C19.5776 56.3822 19.0479 56.4374 18.5402 56.4815C18.0546 56.5036 17.7236 56.5146 17.547 56.5146H5.62828C5.4517 56.5146 5.10959 56.5036 4.60194 56.4815C4.11637 56.4374 3.58665 56.3822 3.01278 56.316C2.46099 56.2277 1.98645 56.1174 1.58916 55.9849C1.19187 55.8304 0.993225 55.6318 0.993225 55.389V47.7743C0.993225 47.6198 1.11462 47.4763 1.35741 47.3439C1.62227 47.2114 1.89816 47.1011 2.1851 47.0128C2.4941 46.9024 2.70378 46.8362 2.81414 46.8141L8.17756 45.0263ZM10.5944 44.1987L12.5809 43.5365V36.7164H10.5944V44.1987ZM10.2633 54.2964H12.9119V47.2445L10.2633 48.1384V54.2964ZM44.3705 34.4982V36.7164H33.4451V43.371C33.5775 43.1282 33.8865 42.9406 34.3721 42.8081C34.8576 42.6757 35.4094 42.5764 36.0274 42.5102C36.6675 42.444 37.2635 42.4108 37.8152 42.4108C38.3891 42.3888 38.8085 42.3777 39.0733 42.3777C39.2941 42.3777 39.7024 42.3888 40.2983 42.4108C40.8942 42.4329 41.5343 42.4771 42.2185 42.5433C42.9028 42.6095 43.4877 42.7199 43.9732 42.8744C44.4588 43.0289 44.7016 43.2385 44.7016 43.5034V55.389C44.7016 55.6318 44.503 55.8304 44.1057 55.9849C43.7084 56.1174 43.2228 56.2277 42.6489 56.316C42.0972 56.3822 41.5674 56.4374 41.0598 56.4815C40.5742 56.5036 40.2431 56.5146 40.0666 56.5146H28.81C28.6334 56.5146 28.2913 56.5036 27.7837 56.4815C27.2981 56.4374 26.7684 56.3822 26.1945 56.316C25.6427 56.2277 25.1682 56.1063 24.7709 55.9518C24.3736 55.7973 24.175 55.6097 24.175 55.389V35.5907C24.175 35.3479 24.3736 35.1603 24.7709 35.0279C25.1682 34.8734 25.6427 34.763 26.1945 34.6968C26.7684 34.6306 27.2981 34.5864 27.7837 34.5644C28.2913 34.5202 28.6334 34.4982 28.81 34.4982H44.3705ZM33.4451 54.2964H35.4315V44.6291H33.4451V54.2964Z" fill="#1C3C6F"/>
<path d="M23.2591 13.5604H14.2592V32H10.1755V13.5604H1.15985V9.47665H23.2591V13.5604ZM44.372 32H40.2883V26.4713H25.9324V32H21.8487V20.7383C21.8487 19.0944 22.1314 17.5813 22.6968 16.1991C23.2623 14.8169 24.0476 13.6284 25.0528 12.6337C26.058 11.6389 27.2465 10.8641 28.6182 10.3091C29.9899 9.75414 31.4873 9.47665 33.1103 9.47665H42.3144C42.5972 9.47665 42.8642 9.52901 43.1155 9.63372C43.3668 9.73843 43.5867 9.88503 43.7752 10.0735C43.9636 10.262 44.1102 10.4819 44.2149 10.7332C44.3197 10.9845 44.372 11.2515 44.372 11.5342V32ZM25.9324 22.3875H40.2883V13.5604H33.1103C32.9847 13.5604 32.7177 13.5813 32.3093 13.6232C31.9114 13.6546 31.4454 13.7436 30.9114 13.8902C30.3878 14.0368 29.8329 14.2619 29.2465 14.5656C28.6601 14.8693 28.1209 15.2881 27.6287 15.8221C27.1366 16.3562 26.7282 17.0263 26.4036 17.8326C26.0895 18.6284 25.9324 19.597 25.9324 20.7383V22.3875Z" fill="#1C3C6F"/>
</svg>
